<svg width="148" height="149" viewBox="0 0 148 149" fill="none" xmlns="http://www.w3.org/2000/svg">
<path d="M88.7949 146.88C69.5457 150.621 49.5986 146.563 33.3416 135.598C17.0847 124.632 5.84955 107.658 2.10789 88.4087C-1.63377 69.1595 2.42452 49.2124 13.39 32.9554C24.3554 16.6985 41.3298 5.46336 60.579 1.7217C89.1919 -3.84008 118.494 7.70833 135.294 31.1311C135.73 31.7379 136.042 32.4245 136.212 33.1518C136.382 33.8791 136.408 34.6328 136.287 35.3699C136.166 36.1069 135.901 36.813 135.507 37.4476C135.113 38.0823 134.598 38.6331 133.991 39.0687C133.384 39.5043 132.698 39.8162 131.97 39.9864C131.243 40.1567 130.489 40.182 129.752 40.061C129.015 39.9399 128.309 39.6749 127.675 39.281C127.04 38.8871 126.489 38.3721 126.053 37.7653C111.829 17.9412 86.9867 8.17647 62.7495 12.8877C46.4617 16.0537 32.0988 25.5604 22.8203 39.3163C13.5418 53.0721 10.1079 69.9505 13.2739 86.2382C16.4399 102.526 25.9465 116.889 39.7024 126.167C53.4583 135.446 70.3367 138.88 86.6244 135.714C110.862 131.003 130.237 112.643 135.999 88.9336C136.356 87.4678 137.28 86.2038 138.569 85.4195C139.858 84.6353 141.405 84.395 142.871 84.7517C144.337 85.1083 145.601 86.0326 146.385 87.3212C147.169 88.6098 147.409 90.1572 147.053 91.623C140.251 119.634 117.408 141.318 88.7949 146.88Z" fill="#4F44CB"/>
</svg>
