<svg width="153" height="153" viewBox="0 0 153 153" fill="none" xmlns="http://www.w3.org/2000/svg">
<path d="M109.853 54.8343C110.397 55.377 110.828 56.0215 111.122 56.7309C111.416 57.4404 111.567 58.2008 111.567 58.9688C111.567 59.7367 111.416 60.4971 111.122 61.2066C110.828 61.916 110.397 62.5605 109.853 63.1032L68.947 104.009C68.4043 104.553 67.7598 104.984 67.0503 105.278C66.3409 105.572 65.5805 105.723 64.8125 105.723C64.0446 105.723 63.2841 105.572 62.5747 105.278C61.8653 104.984 61.2208 104.553 60.6781 104.009L43.1468 86.4782C42.0503 85.3817 41.4343 83.8945 41.4343 82.3438C41.4343 80.793 42.0503 79.3058 43.1468 78.2093C44.2434 77.1128 45.7306 76.4967 47.2813 76.4967C48.832 76.4967 50.3192 77.1128 51.4157 78.2093L64.8125 91.6134L101.584 54.8343C102.127 54.291 102.772 53.8599 103.481 53.5659C104.19 53.2718 104.951 53.1204 105.719 53.1204C106.487 53.1204 107.247 53.2718 107.957 53.5659C108.666 53.8599 109.311 54.291 109.853 54.8343ZM152.469 76.5C152.469 91.5252 148.013 106.213 139.666 118.706C131.318 131.199 119.453 140.936 105.572 146.686C91.6905 152.436 76.4158 153.94 61.6793 151.009C46.9428 148.078 33.4064 140.842 22.782 130.218C12.1576 119.594 4.92227 106.057 1.991 91.3208C-0.940269 76.5843 0.564166 61.3095 6.31406 47.428C12.064 33.5465 21.8011 21.6818 34.2941 13.3343C46.7871 4.98674 61.4748 0.53125 76.5 0.53125C96.6417 0.55252 115.952 8.56318 130.195 22.8055C144.437 37.0478 152.448 56.3584 152.469 76.5ZM140.781 76.5C140.781 63.7864 137.011 51.3582 129.948 40.7873C122.885 30.2163 112.845 21.9772 101.099 17.1119C89.3535 12.2466 76.4287 10.9736 63.9594 13.4539C51.49 15.9342 40.0362 22.0564 31.0463 31.0463C22.0564 40.0362 15.9342 51.49 13.4539 63.9594C10.9736 76.4287 12.2466 89.3535 17.1119 101.099C21.9772 112.845 30.2163 122.885 40.7873 129.948C51.3583 137.011 63.7864 140.781 76.5 140.781C93.5425 140.762 109.882 133.983 121.932 121.932C133.983 109.881 140.762 93.5425 140.781 76.5Z" fill="#6653DF"/>
</svg>
