<svg width="14" height="14" viewBox="0 0 14 14" fill="none" xmlns="http://www.w3.org/2000/svg">
<path d="M6.21742 0.559998C6.15105 0.560033 6.08685 0.58364 6.03627 0.626609C5.98569 0.669579 5.95202 0.729117 5.94125 0.794607L5.66891 2.46203C5.34142 2.55729 5.02915 2.68583 4.73484 2.84594L3.35891 1.8632C3.30504 1.82473 3.23928 1.80659 3.17331 1.812C3.10733 1.8174 3.04541 1.84601 2.99852 1.89273L1.90914 2.98101C1.86259 3.0276 1.83394 3.0891 1.82824 3.15471C1.82254 3.22032 1.84015 3.28585 1.87797 3.33976L2.84594 4.72445C2.68337 5.02047 2.55198 5.33451 2.45438 5.66508L0.794063 5.94125C0.728773 5.95224 0.669491 5.98602 0.626742 6.03658C0.583992 6.08714 0.560539 6.15121 0.560547 6.21742V7.75742C0.560428 7.82323 0.583494 7.88699 0.625696 7.93749C0.667898 7.98799 0.72654 8.02202 0.791329 8.03359L2.45273 8.32781C2.54981 8.6578 2.68036 8.97206 2.8432 9.26844L1.8632 10.6395C1.82474 10.6933 1.8066 10.7591 1.812 10.8251C1.81741 10.891 1.84601 10.953 1.89273 10.9998L2.98156 12.0892C3.02805 12.1357 3.08941 12.1644 3.1549 12.1702C3.22039 12.176 3.28584 12.1585 3.33977 12.1209L4.72719 11.1497C5.02236 11.3107 5.3354 11.4402 5.66398 11.5363L5.94125 13.2059C5.95213 13.2713 5.98586 13.3307 6.03643 13.3736C6.087 13.4165 6.15113 13.44 6.21742 13.44H7.75742C7.82332 13.4401 7.88713 13.417 7.93765 13.3746C7.98816 13.3323 8.02213 13.2736 8.03359 13.2087L8.33055 11.5325C8.65778 11.4349 8.96935 11.3035 9.26297 11.1415L10.6597 12.1215C10.7136 12.1593 10.7791 12.1769 10.8447 12.1712C10.9103 12.1655 10.9719 12.1369 11.0184 12.0903L12.1073 11.0004C12.1542 10.9534 12.1829 10.8912 12.1882 10.825C12.1935 10.7588 12.1751 10.6928 12.1363 10.6389L11.1404 9.2564C11.2996 8.96419 11.4279 8.65448 11.5232 8.32945L13.2081 8.03414C13.273 8.02268 13.3318 7.9887 13.3741 7.93819C13.4164 7.88768 13.4395 7.82386 13.4395 7.75797V6.21797C13.4394 6.1516 13.4158 6.0874 13.3728 6.03682C13.3299 5.98623 13.2703 5.95256 13.2048 5.94179L11.5227 5.66672C11.4267 5.34207 11.2981 5.03292 11.1388 4.74086L12.1209 3.3414C12.1588 3.28749 12.1764 3.22197 12.1707 3.15635C12.165 3.09074 12.1363 3.02924 12.0898 2.98265L11.0004 1.89383C10.9534 1.8469 10.8912 1.81822 10.825 1.81291C10.7588 1.80761 10.6928 1.82601 10.6389 1.86484L9.26023 2.85633C8.96649 2.69494 8.65472 2.56424 8.32672 2.4675L8.03359 0.791873C8.02225 0.726883 7.98832 0.667986 7.9378 0.625565C7.88727 0.583144 7.82339 0.559924 7.75742 0.559998H6.21742ZM6.45586 1.12H7.52227L7.80117 2.71195C7.81045 2.76534 7.83503 2.8149 7.87191 2.8546C7.9088 2.8943 7.95642 2.92245 8.00899 2.93562C8.41849 3.03767 8.80309 3.19943 9.15414 3.41195C9.20108 3.44039 9.25533 3.45441 9.31017 3.45227C9.365 3.45013 9.418 3.43193 9.46258 3.39992L10.7729 2.4582L11.527 3.21234L10.5941 4.54179C10.5629 4.58614 10.5453 4.63858 10.5433 4.69275C10.5414 4.74692 10.5552 4.80048 10.5831 4.84695C10.7935 5.19721 10.9531 5.57938 11.0551 5.98664C11.0684 6.03968 11.0969 6.08767 11.1371 6.1247C11.1773 6.16173 11.2275 6.18616 11.2815 6.195L12.8795 6.4564V7.52281L11.2782 7.8039C11.2248 7.81336 11.1752 7.83814 11.1356 7.87523C11.096 7.91232 11.068 7.96011 11.0551 8.01281C10.9543 8.41955 10.7946 8.80171 10.5842 9.15195C10.556 9.19888 10.5421 9.25306 10.5443 9.30778C10.5466 9.36251 10.5648 9.41537 10.5968 9.45984L11.5429 10.7729L10.7887 11.5276L9.46148 10.5962C9.41691 10.565 9.36421 10.5475 9.30982 10.5457C9.25544 10.544 9.20172 10.5581 9.15524 10.5864C8.80593 10.7989 8.42093 10.9614 8.01281 11.0649C7.96049 11.0781 7.9131 11.1061 7.87633 11.1456C7.83956 11.1851 7.81498 11.2344 7.80555 11.2875L7.52281 12.88H6.45477L6.19117 11.2946C6.1822 11.2407 6.15764 11.1906 6.12052 11.1504C6.08339 11.1103 6.03533 11.0819 5.98227 11.0687C5.57252 10.9678 5.18619 10.8062 4.83274 10.5941C4.78633 10.5663 4.73287 10.5525 4.67881 10.5545C4.62476 10.5564 4.57242 10.5739 4.52813 10.605L3.21125 11.5276L2.45656 10.7718L3.38734 9.47078C3.41915 9.4262 3.4372 9.37328 3.43924 9.31855C3.44128 9.26383 3.42723 9.20971 3.39883 9.16289C3.18434 8.80848 3.02213 8.42218 2.91977 8.01062C2.90667 7.9582 2.87869 7.91069 2.83919 7.87382C2.7997 7.83694 2.75038 7.81228 2.69719 7.80281L1.12055 7.52281V6.45476L2.69609 6.19281C2.74995 6.18388 2.80003 6.1594 2.84016 6.12238C2.88028 6.08536 2.90872 6.03742 2.92195 5.98445C3.0252 5.57148 3.18733 5.18524 3.40102 4.83164C3.42919 4.78522 3.44327 4.7316 3.44152 4.67732C3.43977 4.62305 3.42228 4.57045 3.39117 4.52594L2.47133 3.21125L3.22656 2.45656L4.53195 3.38953C4.57636 3.4212 4.62905 3.4392 4.68356 3.44134C4.73806 3.44348 4.792 3.42965 4.83875 3.40156C5.19033 3.1904 5.57756 3.03018 5.98773 2.92961C6.04105 2.91648 6.08934 2.88797 6.12658 2.84762C6.16382 2.80726 6.18837 2.75685 6.19719 2.70265L6.45586 1.12ZM7 4.76C5.7662 4.76 4.76 5.7662 4.76 7C4.76 8.2338 5.7662 9.24 7 9.24C8.2338 9.24 9.24 8.2338 9.24 7C9.24 5.7662 8.2338 4.76 7 4.76ZM7 5.32C7.93116 5.32 8.68 6.06884 8.68 7C8.68 7.93115 7.93116 8.68 7 8.68C6.06885 8.68 5.32 7.93115 5.32 7C5.32 6.06884 6.06885 5.32 7 5.32Z" fill="white"/>
</svg>
