<svg width="61" height="61" viewBox="0 0 61 61" fill="none" xmlns="http://www.w3.org/2000/svg">
<path d="M49.0049 46.3076C49.182 46.4847 49.3225 46.695 49.4183 46.9264C49.5142 47.1578 49.5635 47.4058 49.5635 47.6563C49.5635 47.9067 49.5142 48.1548 49.4183 48.3862C49.3225 48.6176 49.182 48.8278 49.0049 49.0049C48.8278 49.1821 48.6175 49.3225 48.3861 49.4184C48.1547 49.5142 47.9067 49.5636 47.6562 49.5636C47.4057 49.5636 47.1577 49.5142 46.9263 49.4184C46.6949 49.3225 46.4846 49.1821 46.3075 49.0049L30.5 33.195L14.6924 49.0049C14.3347 49.3626 13.8496 49.5636 13.3437 49.5636C12.8379 49.5636 12.3527 49.3626 11.995 49.0049C11.6373 48.6473 11.4364 48.1621 11.4364 47.6563C11.4364 47.1504 11.6373 46.6653 11.995 46.3076L27.805 30.5L11.995 14.6924C11.6373 14.3348 11.4364 13.8496 11.4364 13.3438C11.4364 12.8379 11.6373 12.3528 11.995 11.9951C12.3527 11.6374 12.8379 11.4365 13.3437 11.4365C13.8496 11.4365 14.3347 11.6374 14.6924 11.9951L30.5 27.8051L46.3075 11.9951C46.6652 11.6374 47.1504 11.4365 47.6562 11.4365C48.1621 11.4365 48.6472 11.6374 49.0049 11.9951C49.3626 12.3528 49.5635 12.8379 49.5635 13.3438C49.5635 13.8496 49.3626 14.3348 49.0049 14.6924L33.1949 30.5L49.0049 46.3076Z" fill="#969696"/>
</svg>
